Cooperativa-Sans-Regular.ufo
<glyph name="exclam" format="2">
	<advance width="329"/>
	<unicode hex="0021"/>
	<outline>
		<contour>
			<point x="124" y="200" type="curve"/>
			<point x="165" y="200" type="line"/>
			<point x="209" y="200" type="line"/>
			<point x="210" y="513"/>
			<point x="216" y="568"/>
			<point x="223" y="743" type="curve"/>
			<point x="223" y="743"/>
			<point x="195" y="749"/>
			<point x="165" y="749" type="curve" smooth="yes"/>
			<point x="135" y="749"/>
			<point x="110" y="743"/>
			<point x="110" y="743" type="curve"/>
			<point x="118" y="509"/>
			<point x="122" y="354"/>
		</contour>
		<contour>
			<point x="164" y="-33" type="curve" smooth="yes"/>
			<point x="198" y="-33"/>
			<point x="227" y="-5"/>
			<point x="227" y="29" type="curve" smooth="yes"/>
			<point x="227" y="63"/>
			<point x="198" y="92"/>
			<point x="164" y="92" type="curve" smooth="yes"/>
			<point x="130" y="92"/>
			<point x="103" y="63"/>
			<point x="103" y="29" type="curve" smooth="yes"/>
			<point x="103" y="-5"/>
			<point x="130" y="-33"/>
		</contour>
	</outline>
</glyph>
<glyph name="ampersand" format="2">
	<advance width="804"/>
	<unicode hex="0026"/>
	<outline>
		<contour>
			<point x="710" y="-14" type="curve"/>
			<point x="764" y="73" type="line"/>
			<point x="733" y="80"/>
			<point x="601" y="119"/>
			<point x="402" y="331" type="curve" smooth="yes"/>
			<point x="326" y="412"/>
			<point x="259" y="486"/>
			<point x="259" y="564" type="curve" smooth="yes"/>
			<point x="259" y="642"/>
			<point x="310" y="683"/>
			<point x="381" y="683" type="curve" smooth="yes"/>
			<point x="428" y="683"/>
			<point x="459" y="665"/>
			<point x="479" y="630" type="curve"/>
			<point x="562" y="691" type="line"/>
			<point x="524" y="736"/>
			<point x="464" y="766"/>
			<point x="381" y="766" type="curve" smooth="yes"/>
			<point x="232" y="766"/>
			<point x="154" y="671"/>
			<point x="154" y="564" type="curve" smooth="yes"/>
			<point x="154" y="450"/>
			<point x="232" y="363"/>
			<point x="335" y="254" type="curve" smooth="yes"/>
			<point x="470" y="112"/>
			<point x="642" y="-14"/>
		</contour>
		<contour>
			<point x="349" y="-14" type="curve" smooth="yes"/>
			<point x="590" y="-14"/>
			<point x="693" y="244"/>
			<point x="715" y="295" type="curve"/>
			<point x="612" y="316" type="line"/>
			<point x="597" y="274"/>
			<point x="539" y="69"/>
			<point x="349" y="69" type="curve" smooth="yes"/>
			<point x="268" y="69"/>
			<point x="186" y="117"/>
			<point x="186" y="220" type="curve" smooth="yes"/>
			<point x="186" y="306"/>
			<point x="235" y="354"/>
			<point x="296" y="370" type="curve"/>
			<point x="250" y="443" type="line"/>
			<point x="148" y="414"/>
			<point x="80" y="336"/>
			<point x="80" y="220" type="curve" smooth="yes"/>
			<point x="80" y="70"/>
			<point x="201" y="-14"/>
		</contour>
	</outline>
</glyph>
<glyph name="parenleft" format="2">
	<advance width="730"/>
	<unicode hex="0028"/>
	<outline>
		<contour>
			<point x="630" y="-235" type="curve"/>
			<point x="666" y="-138" type="line"/>
			<point x="666" y="-138"/>
			<point x="426" y="-21"/>
			<point x="426" y="291" type="curve" smooth="yes"/>
			<point x="426" y="597"/>
			<point x="667" y="722"/>
			<point x="667" y="722" type="curve"/>
			<point x="631" y="819" type="line"/>
			<point x="631" y="819"/>
			<point x="323" y="663"/>
			<point x="323" y="291" type="curve" smooth="yes"/>
			<point x="323" y="-96"/>
			<point x="630" y="-235"/>
		</contour>
	</outline>
</glyph>
<glyph name="parenright" format="2">
	<advance width="730"/>
	<unicode hex="0029"/>
	<outline>
		<contour>
			<point x="153" y="-225" type="line"/>
			<point x="153" y="-225"/>
			<point x="461" y="-69"/>
			<point x="461" y="304" type="curve" smooth="yes"/>
			<point x="461" y="690"/>
			<point x="154" y="830"/>
			<point x="154" y="830" type="curve"/>
			<point x="118" y="732" type="line"/>
			<point x="118" y="732"/>
			<point x="358" y="615"/>
			<point x="358" y="304" type="curve" smooth="yes"/>
			<point x="358" y="-3"/>
			<point x="117" y="-128"/>
			<point x="117" y="-128" type="curve"/>
		</contour>
	</outline>
</glyph>
<glyph name="period" format="2">
	<advance width="177"/>
	<unicode hex="002E"/>
	<outline>
		<contour>
			<point x="88" y="0" type="curve" smooth="yes"/>
			<point x="114" y="0"/>
			<point x="131" y="6"/>
			<point x="131" y="6" type="curve"/>
			<point x="131" y="6"/>
			<point x="137" y="22"/>
			<point x="137" y="48" type="curve" smooth="yes"/>
			<point x="137" y="74"/>
			<point x="131" y="91"/>
			<point x="131" y="91" type="curve"/>
			<point x="131" y="91"/>
			<point x="115" y="97"/>
			<point x="89" y="97" type="curve" smooth="yes"/>
			<point x="63" y="97"/>
			<point x="46" y="91"/>
			<point x="46" y="91" type="curve"/>
			<point x="46" y="91"/>
			<point x="40" y="75"/>
			<point x="40" y="49" type="curve" smooth="yes"/>
			<point x="40" y="23"/>
			<point x="46" y="6"/>
			<point x="46" y="6" type="curve"/>
			<point x="46" y="6"/>
			<point x="62" y="0"/>
		</contour>
	</outline>
</glyph>
<glyph name="one" format="2">
	<advance width="520"/>
	<unicode hex="0031"/>
	<outline>
		<contour>
			<point x="242" y="0" type="curve"/>
			<point x="356" y="0" type="line"/>
			<point x="356" y="0"/>
			<point x="349" y="117"/>
			<point x="349" y="335" type="curve" smooth="yes"/>
			<point x="349" y="415" type="line" smooth="yes"/>
			<point x="349" y="616"/>
			<point x="359" y="750"/>
			<point x="359" y="750" type="curve"/>
			<point x="239" y="750" type="line"/>
			<point x="239" y="750"/>
			<point x="249" y="616"/>
			<point x="249" y="415" type="curve" smooth="yes"/>
			<point x="249" y="335" type="line" smooth="yes"/>
			<point x="249" y="117"/>
			<point x="242" y="0"/>
		</contour>
		<contour>
			<point x="101" y="0" type="curve"/>
			<point x="489" y="0" type="line"/>
			<point x="489" y="0"/>
			<point x="490" y="16"/>
			<point x="490" y="68" type="curve" smooth="yes"/>
			<point x="490" y="71"/>
			<point x="489" y="89"/>
			<point x="489" y="89" type="curve"/>
			<point x="100" y="89" type="line"/>
			<point x="100" y="89"/>
			<point x="99" y="71"/>
			<point x="99" y="68" type="curve" smooth="yes"/>
			<point x="99" y="16"/>
			<point x="101" y="0"/>
		</contour>
		<contour>
			<point x="128" y="522" type="curve"/>
			<point x="250" y="645" type="line"/>
			<point x="239" y="750" type="line"/>
			<point x="56" y="593" type="line"/>
			<point x="56" y="593"/>
			<point x="57" y="579"/>
			<point x="83" y="551" type="curve" smooth="yes"/>
			<point x="111" y="520"/>
			<point x="128" y="522"/>
		</contour>
	</outline>
</glyph>
<glyph name="two" format="2">
	<advance width="554"/>
	<unicode hex="0032"/>
	<outline>
		<contour>
			<point x="44" y="0" type="line"/>
			<point x="492" y="0" type="line"/>
			<point x="492" y="0"/>
			<point x="505" y="17"/>
			<point x="505" y="62" type="curve" smooth="yes"/>
			<point x="505" y="93"/>
			<point x="496" y="117"/>
			<point x="496" y="117" type="curve"/>
			<point x="457" y="96"/>
			<point x="278" y="93"/>
			<point x="192" y="93" type="curve"/>
			<point x="192" y="93"/>
			<point x="500" y="373"/>
			<point x="500" y="558" type="curve" smooth="yes"/>
			<point x="500" y="695"/>
			<point x="379" y="770"/>
			<point x="265" y="771" type="curve" smooth="yes"/>
			<point x="106" y="771"/>
			<point x="40" y="681"/>
			<point x="40" y="681" type="curve"/>
			<point x="40" y="681"/>
			<point x="39" y="663"/>
			<point x="58" y="638" type="curve" smooth="yes"/>
			<point x="81" y="607"/>
			<point x="94" y="591"/>
			<point x="94" y="591" type="curve"/>
			<point x="94" y="591"/>
			<point x="135" y="678"/>
			<point x="246" y="678" type="curve" smooth="yes"/>
			<point x="321" y="678"/>
			<point x="384" y="624"/>
			<point x="384" y="550" type="curve" smooth="yes"/>
			<point x="384" y="370"/>
			<point x="44" y="90"/>
			<point x="44" y="90" type="curve"/>
		</contour>
	</outline>
</glyph>
<glyph name="three" format="2">
	<advance width="547"/>
	<unicode hex="0033"/>
	<outline>
		<contour>
			<point x="236" y="-9" type="curve" smooth="yes"/>
			<point x="414" y="-9"/>
			<point x="507" y="102"/>
			<point x="507" y="208" type="curve" smooth="yes"/>
			<point x="507" y="398"/>
			<point x="345" y="418"/>
			<point x="345" y="418" type="curve"/>
			<point x="345" y="418"/>
			<point x="487" y="450"/>
			<point x="487" y="571" type="curve" smooth="yes"/>
			<point x="487" y="685"/>
			<point x="404" y="769"/>
			<point x="260" y="769" type="curve" smooth="yes"/>
			<point x="110" y="769"/>
			<point x="50" y="681"/>
			<point x="50" y="681" type="curve"/>
			<point x="50" y="681"/>
			<point x="50" y="667"/>
			<point x="70" y="638" type="curve" smooth="yes"/>
			<point x="89" y="611"/>
			<point x="104" y="591"/>
			<point x="104" y="591" type="curve"/>
			<point x="104" y="591"/>
			<point x="155" y="677"/>
			<point x="241" y="677" type="curve" smooth="yes"/>
			<point x="306" y="677"/>
			<point x="376" y="646"/>
			<point x="376" y="570" type="curve" smooth="yes"/>
			<point x="376" y="456"/>
			<point x="233" y="459"/>
			<point x="206" y="459" type="curve"/>
			<point x="206" y="367" type="line"/>
			<point x="206" y="367"/>
			<point x="399" y="380"/>
			<point x="399" y="225" type="curve" smooth="yes"/>
			<point x="399" y="132"/>
			<point x="320" y="84"/>
			<point x="235" y="84" type="curve" smooth="yes"/>
			<point x="149" y="84"/>
			<point x="82" y="152"/>
			<point x="82" y="152" type="curve"/>
			<point x="82" y="152"/>
			<point x="72" y="133"/>
			<point x="65" y="101" type="curve" smooth="yes"/>
			<point x="58" y="67"/>
			<point x="63" y="42"/>
			<point x="63" y="42" type="curve"/>
			<point x="63" y="42"/>
			<point x="124" y="-9"/>
		</contour>
	</outline>
</glyph>
<glyph name="five" format="2">
	<advance width="600"/>
	<unicode hex="0035"/>
	<outline>
		<contour>
			<point x="289" y="-15" type="curve" smooth="yes"/>
			<point x="432" y="-15"/>
			<point x="518" y="83"/>
			<point x="518" y="230" type="curve" smooth="yes"/>
			<point x="518" y="371"/>
			<point x="448" y="477"/>
			<point x="300" y="477" type="curve" smooth="yes"/>
			<point x="236" y="477"/>
			<point x="168" y="461"/>
			<point x="70" y="396" type="curve"/>
			<point x="133" y="343" type="line"/>
			<point x="170" y="374"/>
			<point x="214" y="397"/>
			<point x="271" y="397" type="curve" smooth="yes"/>
			<point x="352" y="397"/>
			<point x="416" y="338"/>
			<point x="416" y="230" type="curve" smooth="yes"/>
			<point x="416" y="131"/>
			<point x="349" y="71"/>
			<point x="272" y="71" type="curve" smooth="yes"/>
			<point x="221" y="71"/>
			<point x="147" y="95"/>
			<point x="98" y="140" type="curve"/>
			<point x="57" y="53" type="line"/>
			<point x="105" y="10"/>
			<point x="202" y="-15"/>
		</contour>
		<contour>
			<point x="70" y="396" type="line"/>
			<point x="70" y="396"/>
			<point x="145" y="421"/>
			<point x="169" y="434" type="curve"/>
			<point x="203" y="661" type="line"/>
			<point x="314" y="661" type="line" smooth="yes"/>
			<point x="431" y="661"/>
			<point x="490" y="652"/>
			<point x="490" y="652" type="curve"/>
			<point x="496" y="671"/>
			<point x="496" y="730"/>
			<point x="488" y="754" type="curve"/>
			<point x="488" y="754"/>
			<point x="394" y="750"/>
			<point x="353" y="750" type="curve" smooth="yes"/>
			<point x="123" y="750" type="line"/>
			<point x="123" y="742" type="line"/>
		</contour>
	</outline>
</glyph>
<glyph name="seven" format="2">
	<advance width="477"/>
	<unicode hex="0037"/>
	<outline>
		<contour>
			<point x="125" y="0" type="line"/>
			<point x="155" y="-7"/>
			<point x="196" y="-6"/>
			<point x="231" y="0" type="curve"/>
			<point x="457" y="742" type="line"/>
			<point x="457" y="750" type="line"/>
			<point x="197" y="750" type="line" smooth="yes"/>
			<point x="116" y="750"/>
			<point x="42" y="754"/>
			<point x="42" y="754" type="curve"/>
			<point x="34" y="730"/>
			<point x="34" y="671"/>
			<point x="40" y="652" type="curve"/>
			<point x="40" y="652"/>
			<point x="109" y="672"/>
			<point x="236" y="672" type="curve" smooth="yes"/>
			<point x="363" y="672" type="line"/>
			<point x="344" y="705" type="line"/>
			<point x="350" y="681" type="line"/>
		</contour>
	</outline>
</glyph>
<glyph name="nine" format="2">
	<advance width="599"/>
	<unicode hex="0039"/>
	<outline>
		<contour>
			<point x="252" y="-16" type="curve" smooth="yes"/>
			<point x="438" y="-16"/>
			<point x="549" y="116"/>
			<point x="549" y="422" type="curve" smooth="yes"/>
			<point x="549" y="673"/>
			<point x="438" y="766"/>
			<point x="290" y="766" type="curve" smooth="yes"/>
			<point x="157" y="766"/>
			<point x="50" y="665"/>
			<point x="50" y="515" type="curve" smooth="yes"/>
			<point x="50" y="344"/>
			<point x="152" y="255"/>
			<point x="286" y="255" type="curve" smooth="yes"/>
			<point x="449" y="255"/>
			<point x="490" y="417"/>
			<point x="490" y="417" type="curve"/>
			<point x="446" y="397" type="line"/>
			<point x="446" y="185"/>
			<point x="390" y="65"/>
			<point x="244" y="65" type="curve" smooth="yes"/>
			<point x="165" y="65"/>
			<point x="106" y="123"/>
			<point x="106" y="123" type="curve"/>
			<point x="83" y="116"/>
			<point x="59" y="77"/>
			<point x="59" y="52" type="curve"/>
			<point x="59" y="52"/>
			<point x="114" y="-16"/>
		</contour>
		<contour>
			<point x="291" y="335" type="curve" smooth="yes"/>
			<point x="213" y="335"/>
			<point x="155" y="382"/>
			<point x="155" y="515" type="curve" smooth="yes"/>
			<point x="155" y="635"/>
			<point x="228" y="686"/>
			<point x="296" y="686" type="curve" smooth="yes"/>
			<point x="391" y="686"/>
			<point x="444" y="626"/>
			<point x="444" y="508" type="curve" smooth="yes"/>
			<point x="444" y="388"/>
			<point x="383" y="335"/>
		</contour>
	</outline>
</glyph>
<glyph name="question" format="2">
	<advance width="600"/>
	<unicode hex="003F"/>
	<outline>
		<contour>
			<point x="196" y="200" type="curve"/>
			<point x="291" y="200" type="line"/>
			<point x="291" y="266" type="line" smooth="yes"/>
			<point x="291" y="364"/>
			<point x="491" y="427"/>
			<point x="491" y="576" type="curve" smooth="yes"/>
			<point x="491" y="688"/>
			<point x="419" y="763"/>
			<point x="287" y="763" type="curve" smooth="yes"/>
			<point x="175" y="763"/>
			<point x="99" y="676"/>
			<point x="99" y="676" type="curve"/>
			<point x="99" y="676"/>
			<point x="105" y="654"/>
			<point x="117" y="636" type="curve" smooth="yes"/>
			<point x="132" y="614"/>
			<point x="153" y="596"/>
			<point x="153" y="596" type="curve"/>
			<point x="153" y="596"/>
			<point x="218" y="684"/>
			<point x="284" y="684" type="curve" smooth="yes"/>
			<point x="359" y="684"/>
			<point x="388" y="633"/>
			<point x="388" y="574" type="curve" smooth="yes"/>
			<point x="388" y="449"/>
			<point x="196" y="413"/>
			<point x="196" y="306" type="curve" smooth="yes"/>
			<point x="196" y="213"/>
			<point x="196" y="200"/>
		</contour>
		<contour>
			<point x="252" y="-50" type="curve" smooth="yes"/>
			<point x="293" y="-50"/>
			<point x="325" y="-17"/>
			<point x="325" y="24" type="curve" smooth="yes"/>
			<point x="325" y="65"/>
			<point x="293" y="98"/>
			<point x="252" y="98" type="curve" smooth="yes"/>
			<point x="211" y="98"/>
			<point x="178" y="65"/>
			<point x="178" y="24" type="curve" smooth="yes"/>
			<point x="178" y="-17"/>
			<point x="211" y="-50"/>
		</contour>
	</outline>
</glyph>
<glyph name="D" format="2">
	<advance width="666"/>
	<unicode hex="0044"/>
	<outline>
		<contour>
			<point x="231" y="-16" type="curve" smooth="yes"/>
			<point x="408" y="-16"/>
			<point x="601" y="68"/>
			<point x="601" y="375" type="curve" smooth="yes"/>
			<point x="601" y="682"/>
			<point x="408" y="766"/>
			<point x="231" y="766" type="curve" smooth="yes"/>
			<point x="127" y="766"/>
			<point x="60" y="750"/>
			<point x="60" y="750" type="curve"/>
			<point x="95" y="656" type="line"/>
			<point x="95" y="656"/>
			<point x="160" y="686"/>
			<point x="246" y="686" type="curve" smooth="yes"/>
			<point x="387" y="686"/>
			<point x="496" y="572"/>
			<point x="496" y="375" type="curve" smooth="yes"/>
			<point x="496" y="178"/>
			<point x="387" y="64"/>
			<point x="246" y="64" type="curve" smooth="yes"/>
			<point x="160" y="64"/>
			<point x="96" y="84"/>
			<point x="96" y="84" type="curve"/>
			<point x="63" y="0" type="line"/>
			<point x="63" y="0"/>
			<point x="127" y="-16"/>
		</contour>
		<contour>
			<point x="63" y="0" type="curve"/>
			<point x="172" y="0" type="line"/>
			<point x="172" y="0"/>
			<point x="165" y="137"/>
			<point x="165" y="335" type="curve" smooth="yes"/>
			<point x="165" y="415" type="line" smooth="yes"/>
			<point x="165" y="616"/>
			<point x="175" y="750"/>
			<point x="175" y="750" type="curve"/>
			<point x="60" y="750" type="line"/>
			<point x="60" y="750"/>
			<point x="70" y="616"/>
			<point x="70" y="415" type="curve" smooth="yes"/>
			<point x="70" y="335" type="line" smooth="yes"/>
			<point x="70" y="137"/>
			<point x="63" y="0"/>
		</contour>
	</outline>
</glyph>
<glyph name="E" format="2">
	<advance width="498"/>
	<unicode hex="0045"/>
	<outline>
		<contour>
			<point x="63" y="0" type="curve"/>
			<point x="172" y="0" type="line"/>
			<point x="172" y="0"/>
			<point x="165" y="137"/>
			<point x="165" y="335" type="curve" smooth="yes"/>
			<point x="165" y="415" type="line" smooth="yes"/>
			<point x="165" y="616"/>
			<point x="175" y="750"/>
			<point x="175" y="750" type="curve"/>
			<point x="60" y="750" type="line"/>
			<point x="60" y="750"/>
			<point x="70" y="616"/>
			<point x="70" y="415" type="curve" smooth="yes"/>
			<point x="70" y="335" type="line" smooth="yes"/>
			<point x="70" y="137"/>
			<point x="63" y="0"/>
		</contour>
		<contour>
			<point x="452" y="-4" type="curve"/>
			<point x="460" y="20"/>
			<point x="460" y="79"/>
			<point x="454" y="98" type="curve"/>
			<point x="454" y="98"/>
			<point x="415" y="78"/>
			<point x="258" y="78" type="curve" smooth="yes"/>
			<point x="155" y="78" type="line"/>
			<point x="140" y="0" type="line"/>
			<point x="297" y="0" type="line" smooth="yes"/>
			<point x="378" y="0"/>
			<point x="452" y="-4"/>
		</contour>
		<contour>
			<point x="410" y="338" type="curve"/>
			<point x="415" y="362"/>
			<point x="416" y="404"/>
			<point x="410" y="426" type="curve"/>
			<point x="410" y="426"/>
			<point x="340" y="420"/>
			<point x="232" y="420" type="curve" smooth="yes"/>
			<point x="144" y="420" type="line"/>
			<point x="146" y="343" type="line"/>
			<point x="237" y="343" type="line" smooth="yes"/>
			<point x="363" y="343"/>
			<point x="410" y="338"/>
		</contour>
		<contour>
			<point x="442" y="652" type="curve"/>
			<point x="448" y="671"/>
			<point x="448" y="730"/>
			<point x="440" y="754" type="curve"/>
			<point x="440" y="754"/>
			<point x="366" y="750"/>
			<point x="285" y="750" type="curve" smooth="yes"/>
			<point x="128" y="750" type="line"/>
			<point x="143" y="672" type="line"/>
			<point x="246" y="672" type="line" smooth="yes"/>
			<point x="403" y="672"/>
			<point x="442" y="652"/>
		</contour>
	</outline>
</glyph>
<glyph name="H" format="2">
	<advance width="668"/>
	<unicode hex="0048"/>
	<outline>
		<contour>
			<point x="493" y="0" type="curve"/>
			<point x="607" y="0" type="line"/>
			<point x="607" y="0"/>
			<point x="600" y="137"/>
			<point x="600" y="335" type="curve" smooth="yes"/>
			<point x="600" y="415" type="line" smooth="yes"/>
			<point x="600" y="616"/>
			<point x="610" y="750"/>
			<point x="610" y="750" type="curve"/>
			<point x="490" y="750" type="line"/>
			<point x="490" y="750"/>
			<point x="500" y="616"/>
			<point x="500" y="415" type="curve" smooth="yes"/>
			<point x="500" y="335" type="line" smooth="yes"/>
			<point x="500" y="137"/>
			<point x="493" y="0"/>
		</contour>
		<contour>
			<point x="61" y="0" type="curve"/>
			<point x="175" y="0" type="line"/>
			<point x="175" y="0"/>
			<point x="168" y="137"/>
			<point x="168" y="335" type="curve" smooth="yes"/>
			<point x="168" y="415" type="line" smooth="yes"/>
			<point x="168" y="616"/>
			<point x="178" y="750"/>
			<point x="178" y="750" type="curve"/>
			<point x="58" y="750" type="line"/>
			<point x="58" y="750"/>
			<point x="68" y="616"/>
			<point x="68" y="415" type="curve" smooth="yes"/>
			<point x="68" y="335" type="line" smooth="yes"/>
			<point x="68" y="137"/>
			<point x="61" y="0"/>
		</contour>
		<contour>
			<point x="155" y="334" type="line"/>
			<point x="342" y="336" type="line"/>
			<point x="513" y="334" type="line"/>
			<point x="513" y="422" type="line"/>
			<point x="341" y="420" type="line"/>
			<point x="155" y="422" type="line"/>
		</contour>
	</outline>
</glyph>
<glyph name="M" format="2">
	<advance width="835"/>
	<unicode hex="004D"/>
	<outline>
		<contour>
			<point x="398" y="0" type="line"/>
			<point x="466" y="0" type="line"/>
			<point x="620" y="375" type="line"/>
			<point x="719" y="674" type="line"/>
			<point x="767" y="750" type="line"/>
			<point x="667" y="750" type="line"/>
			<point x="384" y="50" type="line"/>
		</contour>
		<contour>
			<point x="58" y="0" type="curve"/>
			<point x="158" y="0" type="line"/>
			<point x="158" y="0"/>
			<point x="152" y="137"/>
			<point x="152" y="335" type="curve" smooth="yes"/>
			<point x="152" y="750" type="line"/>
			<point x="58" y="750" type="line"/>
			<point x="58" y="750"/>
			<point x="67" y="616"/>
			<point x="67" y="415" type="curve" smooth="yes"/>
			<point x="67" y="335" type="line" smooth="yes"/>
			<point x="67" y="137"/>
			<point x="58" y="0"/>
		</contour>
		<contour>
			<point x="366" y="0" type="line"/>
			<point x="434" y="0" type="line"/>
			<point x="448" y="50" type="line"/>
			<point x="165" y="750" type="line"/>
			<point x="65" y="750" type="line"/>
			<point x="113" y="674" type="line"/>
			<point x="212" y="375" type="line"/>
		</contour>
		<contour>
			<point x="677" y="0" type="curve"/>
			<point x="777" y="0" type="line"/>
			<point x="777" y="0"/>
			<point x="771" y="137"/>
			<point x="771" y="335" type="curve" smooth="yes"/>
			<point x="771" y="415" type="line" smooth="yes"/>
			<point x="771" y="616"/>
			<point x="774" y="750"/>
			<point x="774" y="750" type="curve"/>
			<point x="686" y="750" type="line"/>
			<point x="686" y="335" type="line" smooth="yes"/>
			<point x="686" y="137"/>
			<point x="677" y="0"/>
		</contour>
	</outline>
</glyph>
<glyph name="Q" format="2">
	<advance width="685"/>
	<unicode hex="0051"/>
	<outline>
		<contour>
			<point x="382" y="-215" type="curve" smooth="yes"/>
			<point x="522" y="-215"/>
			<point x="559" y="-168"/>
			<point x="559" y="-168" type="curve"/>
			<point x="568" y="-140"/>
			<point x="559" y="-93"/>
			<point x="535" y="-83" type="curve"/>
			<point x="535" y="-83"/>
			<point x="475" y="-133"/>
			<point x="378" y="-133" type="curve" smooth="yes"/>
			<point x="230" y="-133"/>
			<point x="233" y="0"/>
			<point x="233" y="0" type="curve"/>
			<point x="196" y="0" type="line"/>
			<point x="196" y="0"/>
			<point x="226" y="-52"/>
			<point x="309" y="-52" type="curve" smooth="yes"/>
			<point x="473" y="-52"/>
			<point x="645" y="76"/>
			<point x="645" y="374" type="curve" smooth="yes"/>
			<point x="645" y="672"/>
			<point x="503" y="766"/>
			<point x="345" y="766" type="curve" smooth="yes"/>
			<point x="187" y="766"/>
			<point x="40" y="673"/>
			<point x="40" y="405" type="curve" smooth="yes"/>
			<point x="40" y="196"/>
			<point x="136" y="117"/>
			<point x="193" y="88" type="curve"/>
			<point x="224" y="90"/>
			<point x="256" y="130"/>
			<point x="258" y="157" type="curve"/>
			<point x="202" y="192"/>
			<point x="155" y="260"/>
			<point x="155" y="405" type="curve" smooth="yes"/>
			<point x="155" y="624"/>
			<point x="252" y="683"/>
			<point x="345" y="683" type="curve" smooth="yes"/>
			<point x="438" y="683"/>
			<point x="530" y="623"/>
			<point x="530" y="374" type="curve" smooth="yes"/>
			<point x="530" y="125"/>
			<point x="408" y="27"/>
			<point x="290" y="27" type="curve" smooth="yes"/>
			<point x="234" y="27"/>
			<point x="186" y="46"/>
			<point x="186" y="46" type="curve"/>
			<point x="186" y="46"/>
			<point x="161" y="21"/>
			<point x="161" y="-30" type="curve" smooth="yes"/>
			<point x="161" y="-125"/>
			<point x="244" y="-215"/>
		</contour>
	</outline>
</glyph>
<glyph name="U" format="2">
	<advance width="633"/>
	<unicode hex="0055"/>
	<outline>
		<contour>
			<point x="319" y="-16" type="curve" smooth="yes"/>
			<point x="517" y="-16"/>
			<point x="579" y="97"/>
			<point x="579" y="395" type="curve" smooth="yes"/>
			<point x="579" y="415" type="line" smooth="yes"/>
			<point x="579" y="616"/>
			<point x="589" y="750"/>
			<point x="589" y="750" type="curve"/>
			<point x="474" y="750" type="line"/>
			<point x="474" y="750"/>
			<point x="484" y="616"/>
			<point x="484" y="415" type="curve" smooth="yes"/>
			<point x="484" y="395" type="line" smooth="yes"/>
			<point x="484" y="176"/>
			<point x="452" y="67"/>
			<point x="319" y="67" type="curve" smooth="yes"/>
			<point x="186" y="67"/>
			<point x="149" y="176"/>
			<point x="149" y="395" type="curve" smooth="yes"/>
			<point x="149" y="415" type="line" smooth="yes"/>
			<point x="149" y="616"/>
			<point x="159" y="750"/>
			<point x="159" y="750" type="curve"/>
			<point x="44" y="750" type="line"/>
			<point x="44" y="750"/>
			<point x="54" y="616"/>
			<point x="54" y="415" type="curve" smooth="yes"/>
			<point x="54" y="395" type="line" smooth="yes"/>
			<point x="54" y="97"/>
			<point x="121" y="-16"/>
		</contour>
	</outline>
</glyph>
<glyph name="Y" format="2">
	<advance width="623"/>
	<unicode hex="0059"/>
	<outline>
		<contour>
			<point x="256" y="0" type="line"/>
			<point x="365" y="0" type="line" smooth="yes"/>
			<point x="366" y="0"/>
			<point x="358" y="264"/>
			<point x="358" y="264" type="curve"/>
			<point x="598" y="751" type="line"/>
			<point x="598" y="751"/>
			<point x="576" y="756"/>
			<point x="540" y="756" type="curve" smooth="yes"/>
			<point x="499" y="756"/>
			<point x="474" y="751"/>
			<point x="474" y="751" type="curve"/>
			<point x="314" y="375" type="line"/>
			<point x="150" y="751" type="line"/>
			<point x="150" y="751"/>
			<point x="131" y="756"/>
			<point x="89" y="756" type="curve" smooth="yes"/>
			<point x="53" y="756"/>
			<point x="25" y="751"/>
			<point x="25" y="751" type="curve"/>
			<point x="263" y="265" type="line"/>
		</contour>
	</outline>
</glyph>
<glyph name="a" format="2">
	<advance width="528"/>
	<unicode hex="0061"/>
	<anchor x="233" y="586" name="Top"/>
	<outline>
		<contour>
			<point x="382" y="-18" type="curve"/>
			<point x="416" y="-14"/>
			<point x="456" y="0"/>
			<point x="478" y="23" type="curve"/>
			<point x="478" y="23"/>
			<point x="446" y="78"/>
			<point x="446" y="163" type="curve" smooth="yes"/>
			<point x="446" y="361" type="line" smooth="yes"/>
			<point x="446" y="434"/>
			<point x="428" y="486"/>
			<point x="392" y="518" type="curve" smooth="yes"/>
			<point x="356" y="550"/>
			<point x="299" y="566"/>
			<point x="222" y="566" type="curve" smooth="yes"/>
			<point x="129" y="566"/>
			<point x="63" y="548"/>
			<point x="63" y="548" type="curve"/>
			<point x="63" y="548"/>
			<point x="57" y="538"/>
			<point x="57" y="514" type="curve" smooth="yes"/>
			<point x="57" y="478"/>
			<point x="70" y="452"/>
			<point x="70" y="452" type="curve"/>
			<point x="70" y="452"/>
			<point x="125" y="480"/>
			<point x="222" y="480" type="curve" smooth="yes"/>
			<point x="320" y="480"/>
			<point x="351" y="432"/>
			<point x="351" y="345" type="curve" smooth="yes"/>
			<point x="351" y="273" type="line"/>
			<point x="352" y="273" type="line"/>
			<point x="352" y="120" type="line" smooth="yes"/>
			<point x="352" y="79"/>
			<point x="362" y="10"/>
		</contour>
		<contour>
			<point x="177" y="-16" type="curve" smooth="yes"/>
			<point x="304" y="-16"/>
			<point x="381" y="81"/>
			<point x="381" y="165" type="curve"/>
			<point x="352" y="206" type="line"/>
			<point x="352" y="121"/>
			<point x="287" y="69"/>
			<point x="215" y="69" type="curve" smooth="yes"/>
			<point x="162" y="69"/>
			<point x="135" y="104"/>
			<point x="135" y="159" type="curve" smooth="yes"/>
			<point x="135" y="230"/>
			<point x="189" y="265"/>
			<point x="297" y="265" type="curve" smooth="yes"/>
			<point x="330" y="265"/>
			<point x="359" y="262"/>
			<point x="381" y="260" type="curve"/>
			<point x="381" y="327" type="line"/>
			<point x="381" y="327"/>
			<point x="347" y="333"/>
			<point x="276" y="333" type="curve" smooth="yes"/>
			<point x="118" y="333"/>
			<point x="35" y="274"/>
			<point x="35" y="154" type="curve" smooth="yes"/>
			<point x="35" y="42"/>
			<point x="103" y="-16"/>
		</contour>
	</outline>
</glyph>
<glyph name="d" format="2">
	<advance width="562"/>
	<unicode hex="0064"/>
	<outline>
		<contour>
			<point x="274" y="-16" type="curve" smooth="yes"/>
			<point x="402" y="-16"/>
			<point x="472" y="100"/>
			<point x="472" y="223" type="curve"/>
			<point x="413" y="215" type="line"/>
			<point x="413" y="128"/>
			<point x="349" y="64"/>
			<point x="281" y="64" type="curve" smooth="yes"/>
			<point x="212" y="64"/>
			<point x="138" y="136"/>
			<point x="138" y="275" type="curve" smooth="yes"/>
			<point x="138" y="391"/>
			<point x="184" y="485"/>
			<point x="282" y="485" type="curve" smooth="yes"/>
			<point x="373" y="485"/>
			<point x="413" y="406"/>
			<point x="413" y="341" type="curve"/>
			<point x="474" y="349" type="line"/>
			<point x="474" y="425"/>
			<point x="422" y="566"/>
			<point x="271" y="566" type="curve" smooth="yes"/>
			<point x="140" y="566"/>
			<point x="40" y="460"/>
			<point x="40" y="275" type="curve" smooth="yes"/>
			<point x="40" y="77"/>
			<point x="155" y="-16"/>
		</contour>
		<contour>
			<point x="447" y="0" type="line"/>
			<point x="503" y="0" type="line"/>
			<point x="504" y="577" type="line" smooth="yes"/>
			<point x="504" y="701"/>
			<point x="503" y="794"/>
			<point x="485" y="812" type="curve"/>
			<point x="451" y="810"/>
			<point x="411" y="796"/>
			<point x="390" y="772" type="curve"/>
			<point x="390" y="772"/>
			<point x="413" y="710"/>
			<point x="413" y="577" type="curve" smooth="yes"/>
			<point x="413" y="65" type="line"/>
		</contour>
	</outline>
</glyph>
<glyph name="e" format="2">
	<advance width="529"/>
	<unicode hex="0065"/>
	<anchor x="288" y="586" name="Top"/>
	<outline>
		<contour>
			<point x="313" y="-15" type="curve" smooth="yes"/>
			<point x="425" y="-15"/>
			<point x="490" y="32"/>
			<point x="490" y="32" type="curve"/>
			<point x="489" y="59"/>
			<point x="481" y="90"/>
			<point x="455" y="106" type="curve"/>
			<point x="455" y="106"/>
			<point x="390" y="63"/>
			<point x="289" y="63" type="curve" smooth="yes"/>
			<point x="208" y="63"/>
			<point x="139" y="100"/>
			<point x="139" y="275" type="curve" smooth="yes"/>
			<point x="139" y="443"/>
			<point x="200" y="488"/>
			<point x="278" y="488" type="curve" smooth="yes"/>
			<point x="372" y="488"/>
			<point x="396" y="422"/>
			<point x="396" y="336" type="curve"/>
			<point x="120" y="336" type="line"/>
			<point x="120" y="258" type="line"/>
			<point x="461" y="258" type="line"/>
			<point x="461" y="258"/>
			<point x="489" y="291"/>
			<point x="489" y="356" type="curve" smooth="yes"/>
			<point x="489" y="478"/>
			<point x="413" y="566"/>
			<point x="288" y="566" type="curve" smooth="yes"/>
			<point x="151" y="566"/>
			<point x="40" y="468"/>
			<point x="40" y="275" type="curve" smooth="yes"/>
			<point x="40" y="61"/>
			<point x="155" y="-15"/>
		</contour>
	</outline>
</glyph>
<glyph name="f" format="2">
	<advance width="410"/>
	<unicode hex="0066"/>
	<outline>
		<contour>
			<point x="179" y="-2" type="curve" smooth="yes"/>
			<point x="214" y="-2"/>
			<point x="238" y="0"/>
			<point x="238" y="0" type="curve"/>
			<point x="238" y="0"/>
			<point x="218" y="104"/>
			<point x="218" y="290" type="curve" smooth="yes"/>
			<point x="218" y="591" type="line" smooth="yes"/>
			<point x="218" y="687"/>
			<point x="244" y="730"/>
			<point x="315" y="730" type="curve" smooth="yes"/>
			<point x="373" y="730"/>
			<point x="397" y="702"/>
			<point x="397" y="702" type="curve"/>
			<point x="397" y="702"/>
			<point x="410" y="728"/>
			<point x="410" y="764" type="curve" smooth="yes"/>
			<point x="410" y="788"/>
			<point x="404" y="798"/>
			<point x="404" y="798" type="curve"/>
			<point x="404" y="798"/>
			<point x="381" y="816"/>
			<point x="292" y="816" type="curve" smooth="yes"/>
			<point x="172" y="816"/>
			<point x="128" y="747"/>
			<point x="128" y="601" type="curve" smooth="yes"/>
			<point x="128" y="286" type="line" smooth="yes"/>
			<point x="128" y="160"/>
			<point x="126" y="0"/>
			<point x="126" y="0" type="curve"/>
			<point x="126" y="0"/>
			<point x="148" y="-2"/>
		</contour>
		<contour>
			<point x="353" y="463" type="curve"/>
			<point x="354" y="552" type="line"/>
			<point x="354" y="552"/>
			<point x="226" y="550"/>
			<point x="174" y="550" type="curve" smooth="yes"/>
			<point x="111" y="550"/>
			<point x="46" y="552"/>
			<point x="46" y="552" type="curve"/>
			<point x="46" y="464" type="line"/>
			<point x="46" y="464"/>
			<point x="133" y="466"/>
			<point x="174" y="466" type="curve" smooth="yes"/>
			<point x="233" y="466"/>
			<point x="353" y="463"/>
		</contour>
	</outline>
</glyph>
<glyph name="g" format="2">
	<advance width="562"/>
	<unicode hex="0067"/>
	<outline>
		<contour>
			<point x="243" y="-216" type="curve" smooth="yes"/>
			<point x="393" y="-216"/>
			<point x="518" y="-163"/>
			<point x="518" y="55" type="curve" smooth="yes"/>
			<point x="518" y="550" type="line"/>
			<point x="462" y="550" type="line"/>
			<point x="428" y="488" type="line"/>
			<point x="428" y="38" type="line" smooth="yes"/>
			<point x="428" y="-68"/>
			<point x="377" y="-130"/>
			<point x="243" y="-130" type="curve" smooth="yes"/>
			<point x="146" y="-130"/>
			<point x="78" y="-102"/>
			<point x="78" y="-102" type="curve"/>
			<point x="64" y="-111"/>
			<point x="58" y="-179"/>
			<point x="71" y="-198" type="curve"/>
			<point x="71" y="-198"/>
			<point x="150" y="-216"/>
		</contour>
		<contour>
			<point x="289" y="-16" type="curve" smooth="yes"/>
			<point x="417" y="-16"/>
			<point x="487" y="100"/>
			<point x="487" y="223" type="curve"/>
			<point x="428" y="215" type="line"/>
			<point x="428" y="128"/>
			<point x="364" y="64"/>
			<point x="296" y="64" type="curve" smooth="yes"/>
			<point x="227" y="64"/>
			<point x="140" y="136"/>
			<point x="140" y="275" type="curve" smooth="yes"/>
			<point x="140" y="391"/>
			<point x="199" y="485"/>
			<point x="297" y="485" type="curve" smooth="yes"/>
			<point x="388" y="485"/>
			<point x="428" y="406"/>
			<point x="428" y="341" type="curve"/>
			<point x="489" y="349" type="line"/>
			<point x="489" y="425"/>
			<point x="437" y="566"/>
			<point x="286" y="566" type="curve" smooth="yes"/>
			<point x="155" y="566"/>
			<point x="42" y="460"/>
			<point x="42" y="275" type="curve" smooth="yes"/>
			<point x="42" y="77"/>
			<point x="170" y="-16"/>
		</contour>
	</outline>
</glyph>
<glyph name="h" format="2">
	<advance width="567"/>
	<unicode hex="0068"/>
	<outline>
		<contour>
			<point x="434" y="-20" type="curve"/>
			<point x="478" y="-16"/>
			<point x="514" y="6"/>
			<point x="524" y="27" type="curve"/>
			<point x="524" y="27"/>
			<point x="498" y="60"/>
			<point x="498" y="151" type="curve" smooth="yes"/>
			<point x="498" y="329" type="line" smooth="yes"/>
			<point x="498" y="502"/>
			<point x="460" y="566"/>
			<point x="333" y="566" type="curve" smooth="yes"/>
			<point x="215" y="566"/>
			<point x="114" y="461"/>
			<point x="114" y="461" type="curve"/>
			<point x="150" y="416" type="line"/>
			<point x="150" y="416"/>
			<point x="214" y="477"/>
			<point x="305" y="477" type="curve" smooth="yes"/>
			<point x="380" y="477"/>
			<point x="408" y="420"/>
			<point x="408" y="329" type="curve" smooth="yes"/>
			<point x="408" y="129" type="line" smooth="yes"/>
			<point x="408" y="85"/>
			<point x="414" y="8"/>
		</contour>
		<contour>
			<point x="121" y="-2" type="curve" smooth="yes"/>
			<point x="156" y="-2"/>
			<point x="177" y="0"/>
			<point x="177" y="0" type="curve"/>
			<point x="177" y="0"/>
			<point x="160" y="104"/>
			<point x="160" y="290" type="curve" smooth="yes"/>
			<point x="160" y="412"/>
			<point x="172" y="461"/>
			<point x="172" y="461" type="curve"/>
			<point x="161" y="461" type="line"/>
			<point x="161" y="526" type="line"/>
			<point x="166" y="800" type="line"/>
			<point x="166" y="800"/>
			<point x="146" y="802"/>
			<point x="116" y="802" type="curve" smooth="yes"/>
			<point x="86" y="802"/>
			<point x="66" y="800"/>
			<point x="66" y="800" type="curve"/>
			<point x="69" y="737"/>
			<point x="70" y="645"/>
			<point x="70" y="526" type="curve" smooth="yes"/>
			<point x="70" y="286" type="line" smooth="yes"/>
			<point x="70" y="160"/>
			<point x="65" y="0"/>
			<point x="65" y="0" type="curve"/>
			<point x="65" y="0"/>
			<point x="90" y="-2"/>
		</contour>
	</outline>
</glyph>
<glyph name="q" format="2">
	<advance width="562"/>
	<unicode hex="0071"/>
	<outline>
		<contour>
			<point x="276" y="-16" type="curve" smooth="yes"/>
			<point x="404" y="-16"/>
			<point x="474" y="100"/>
			<point x="474" y="223" type="curve"/>
			<point x="415" y="215" type="line"/>
			<point x="415" y="128"/>
			<point x="351" y="64"/>
			<point x="283" y="64" type="curve" smooth="yes"/>
			<point x="214" y="64"/>
			<point x="140" y="136"/>
			<point x="140" y="275" type="curve" smooth="yes"/>
			<point x="140" y="391"/>
			<point x="186" y="485"/>
			<point x="284" y="485" type="curve" smooth="yes"/>
			<point x="375" y="485"/>
			<point x="415" y="406"/>
			<point x="415" y="341" type="curve"/>
			<point x="476" y="349" type="line"/>
			<point x="476" y="425"/>
			<point x="424" y="566"/>
			<point x="273" y="566" type="curve" smooth="yes"/>
			<point x="142" y="566"/>
			<point x="42" y="460"/>
			<point x="42" y="275" type="curve" smooth="yes"/>
			<point x="42" y="77"/>
			<point x="157" y="-16"/>
		</contour>
		<contour>
			<point x="485" y="-216" type="curve"/>
			<point x="505" y="-188"/>
			<point x="505" y="-99"/>
			<point x="505" y="-55" type="curve" smooth="yes"/>
			<point x="505" y="553" type="line"/>
			<point x="449" y="553" type="line"/>
			<point x="415" y="488" type="line"/>
			<point x="415" y="-45" type="line" smooth="yes"/>
			<point x="415" y="-120"/>
			<point x="396" y="-185"/>
			<point x="396" y="-185" type="curve"/>
			<point x="410" y="-205"/>
			<point x="446" y="-216"/>
		</contour>
	</outline>
</glyph>
<glyph name="r" format="2">
	<advance width="375"/>
	<unicode hex="0072"/>
	<outline>
		<contour>
			<point x="121" y="-2" type="curve" smooth="yes"/>
			<point x="156" y="-2"/>
			<point x="180" y="0"/>
			<point x="180" y="0" type="curve"/>
			<point x="180" y="0"/>
			<point x="160" y="104"/>
			<point x="160" y="290" type="curve" smooth="yes"/>
			<point x="160" y="481" type="line"/>
			<point x="123" y="550" type="line"/>
			<point x="66" y="550" type="line"/>
			<point x="66" y="550"/>
			<point x="70" y="397"/>
			<point x="70" y="286" type="curve" smooth="yes"/>
			<point x="70" y="160"/>
			<point x="68" y="0"/>
			<point x="68" y="0" type="curve"/>
			<point x="68" y="0"/>
			<point x="90" y="-2"/>
		</contour>
		<contour>
			<point x="160" y="351" type="line"/>
			<point x="160" y="456"/>
			<point x="198" y="480"/>
			<point x="263" y="480" type="curve" smooth="yes"/>
			<point x="315" y="480"/>
			<point x="338" y="456"/>
			<point x="338" y="456" type="curve"/>
			<point x="354" y="476"/>
			<point x="369" y="523"/>
			<point x="369" y="544" type="curve"/>
			<point x="369" y="544"/>
			<point x="339" y="566"/>
			<point x="283" y="566" type="curve" smooth="yes"/>
			<point x="157" y="566"/>
			<point x="112" y="486"/>
			<point x="112" y="370" type="curve"/>
		</contour>
	</outline>
</glyph>
<glyph name="s" format="2">
	<advance width="525"/>
	<unicode hex="0073"/>
	<outline>
		<contour>
			<point x="268" y="-15" type="curve" smooth="yes"/>
			<point x="400" y="-15"/>
			<point x="485" y="51"/>
			<point x="485" y="147" type="curve" smooth="yes"/>
			<point x="485" y="238"/>
			<point x="393" y="284"/>
			<point x="312" y="323" type="curve" smooth="yes"/>
			<point x="250" y="353"/>
			<point x="184" y="374"/>
			<point x="184" y="413" type="curve" smooth="yes"/>
			<point x="184" y="457"/>
			<point x="220" y="479"/>
			<point x="269" y="479" type="curve" smooth="yes"/>
			<point x="376" y="479"/>
			<point x="426" y="441"/>
			<point x="426" y="441" type="curve"/>
			<point x="426" y="441"/>
			<point x="440" y="457"/>
			<point x="440" y="494" type="curve" smooth="yes"/>
			<point x="440" y="518"/>
			<point x="434" y="528"/>
			<point x="434" y="528" type="curve"/>
			<point x="434" y="528"/>
			<point x="372" y="566"/>
			<point x="269" y="566" type="curve" smooth="yes"/>
			<point x="157" y="566"/>
			<point x="76" y="505"/>
			<point x="76" y="401" type="curve" smooth="yes"/>
			<point x="76" y="313"/>
			<point x="179" y="279"/>
			<point x="261" y="238" type="curve" smooth="yes"/>
			<point x="321" y="208"/>
			<point x="377" y="175"/>
			<point x="377" y="137" type="curve" smooth="yes"/>
			<point x="377" y="92"/>
			<point x="330" y="72"/>
			<point x="268" y="72" type="curve" smooth="yes"/>
			<point x="160" y="72"/>
			<point x="80" y="127"/>
			<point x="80" y="127" type="curve"/>
			<point x="80" y="127"/>
			<point x="66" y="111"/>
			<point x="66" y="75" type="curve" smooth="yes"/>
			<point x="66" y="51"/>
			<point x="72" y="41"/>
			<point x="72" y="41" type="curve"/>
			<point x="72" y="41"/>
			<point x="154" y="-15"/>
		</contour>
	</outline>
</glyph>
<glyph name="t" format="2">
	<advance width="416"/>
	<unicode hex="0074"/>
	<outline>
		<contour>
			<point x="252" y="-16" type="curve" smooth="yes"/>
			<point x="336" y="-16"/>
			<point x="376" y="26"/>
			<point x="376" y="26" type="curve"/>
			<point x="378" y="57"/>
			<point x="354" y="88"/>
			<point x="334" y="88" type="curve"/>
			<point x="334" y="88"/>
			<point x="310" y="65"/>
			<point x="276" y="65" type="curve" smooth="yes"/>
			<point x="205" y="65"/>
			<point x="182" y="103"/>
			<point x="182" y="201" type="curve" smooth="yes"/>
			<point x="182" y="674" type="line"/>
			<point x="162" y="688"/>
			<point x="110" y="686"/>
			<point x="92" y="674" type="curve"/>
			<point x="92" y="200" type="line" smooth="yes"/>
			<point x="92" y="55"/>
			<point x="158" y="-16"/>
		</contour>
		<contour>
			<point x="353" y="468" type="curve"/>
			<point x="358" y="492"/>
			<point x="359" y="534"/>
			<point x="353" y="556" type="curve"/>
			<point x="353" y="556"/>
			<point x="283" y="550"/>
			<point x="175" y="550" type="curve" smooth="yes"/>
			<point x="21" y="550" type="line"/>
			<point x="21" y="473" type="line"/>
			<point x="180" y="473" type="line" smooth="yes"/>
			<point x="306" y="473"/>
			<point x="353" y="468"/>
		</contour>
	</outline>
</glyph>
<glyph name="u" format="2">
	<advance width="585"/>
	<unicode hex="0075"/>
	<outline>
		<contour>
			<point x="236" y="-16" type="curve" smooth="yes"/>
			<point x="368" y="-16"/>
			<point x="459" y="123"/>
			<point x="459" y="123" type="curve"/>
			<point x="422" y="168" type="line"/>
			<point x="422" y="168"/>
			<point x="367" y="73"/>
			<point x="268" y="73" type="curve" smooth="yes"/>
			<point x="208" y="73"/>
			<point x="161" y="99"/>
			<point x="161" y="245" type="curve" smooth="yes"/>
			<point x="161" y="389"/>
			<point x="166" y="550"/>
			<point x="166" y="550" type="curve"/>
			<point x="166" y="550"/>
			<point x="146" y="552"/>
			<point x="116" y="552" type="curve" smooth="yes"/>
			<point x="86" y="552"/>
			<point x="66" y="550"/>
			<point x="66" y="550" type="curve"/>
			<point x="69" y="487"/>
			<point x="71" y="394"/>
			<point x="71" y="275" type="curve" smooth="yes"/>
			<point x="71" y="176" type="line" smooth="yes"/>
			<point x="73" y="36"/>
			<point x="133" y="-16"/>
		</contour>
		<contour>
			<point x="435" y="-19" type="curve"/>
			<point x="479" y="-15"/>
			<point x="515" y="7"/>
			<point x="525" y="28" type="curve"/>
			<point x="525" y="28"/>
			<point x="499" y="61"/>
			<point x="499" y="152" type="curve" smooth="yes"/>
			<point x="499" y="281" type="line"/>
			<point x="504" y="550" type="line"/>
			<point x="504" y="550"/>
			<point x="484" y="552"/>
			<point x="454" y="552" type="curve" smooth="yes"/>
			<point x="424" y="552"/>
			<point x="404" y="550"/>
			<point x="404" y="550" type="curve"/>
			<point x="407" y="487"/>
			<point x="409" y="386"/>
			<point x="409" y="281" type="curve" smooth="yes"/>
			<point x="409" y="130" type="line" smooth="yes"/>
			<point x="409" y="86"/>
			<point x="415" y="9"/>
		</contour>
	</outline>
</glyph>
<glyph name="v" format="2">
	<advance width="513"/>
	<unicode hex="0076"/>
	<outline>
		<contour>
			<point x="210" y="0" type="line"/>
			<point x="316" y="0" type="line"/>
			<point x="508" y="550" type="line"/>
			<point x="508" y="550"/>
			<point x="500" y="555"/>
			<point x="459" y="555" type="curve" smooth="yes"/>
			<point x="409" y="555"/>
			<point x="404" y="550"/>
			<point x="404" y="550" type="curve"/>
			<point x="316" y="249" type="line"/>
			<point x="247" y="47" type="line"/>
			<point x="222" y="57" type="line"/>
		</contour>
		<contour>
			<point x="197" y="0" type="line"/>
			<point x="303" y="0" type="line"/>
			<point x="291" y="57" type="line"/>
			<point x="266" y="47" type="line"/>
			<point x="197" y="249" type="line"/>
			<point x="109" y="550" type="line"/>
			<point x="109" y="550"/>
			<point x="104" y="555"/>
			<point x="54" y="555" type="curve" smooth="yes"/>
			<point x="13" y="555"/>
			<point x="5" y="550"/>
			<point x="5" y="550" type="curve"/>
		</contour>
	</outline>
</glyph>
<glyph name="w" format="2">
	<advance width="787"/>
	<unicode hex="0077"/>
	<outline>
		<contour>
			<point x="521" y="0" type="line"/>
			<point x="622" y="0" type="line"/>
			<point x="772" y="550" type="line"/>
			<point x="772" y="550"/>
			<point x="764" y="555"/>
			<point x="723" y="555" type="curve" smooth="yes"/>
			<point x="673" y="555"/>
			<point x="668" y="550"/>
			<point x="668" y="550" type="curve"/>
			<point x="606" y="275" type="line"/>
			<point x="555" y="47" type="line"/>
			<point x="533" y="57" type="line"/>
		</contour>
		<contour>
			<point x="165" y="0" type="line"/>
			<point x="266" y="0" type="line"/>
			<point x="254" y="57" type="line"/>
			<point x="232" y="47" type="line"/>
			<point x="181" y="275" type="line"/>
			<point x="119" y="550" type="line"/>
			<point x="119" y="550"/>
			<point x="114" y="555"/>
			<point x="64" y="555" type="curve" smooth="yes"/>
			<point x="23" y="555"/>
			<point x="15" y="550"/>
			<point x="15" y="550" type="curve"/>
		</contour>
		<contour>
			<point x="188" y="0" type="line"/>
			<point x="299" y="0" type="line"/>
			<point x="347" y="211" type="line"/>
			<point x="395" y="477" type="line"/>
			<point x="430" y="550" type="line"/>
			<point x="332" y="550" type="line"/>
			<point x="265" y="249" type="line"/>
			<point x="222" y="47" type="line"/>
			<point x="200" y="57" type="line"/>
		</contour>
		<contour>
			<point x="488" y="0" type="line"/>
			<point x="599" y="0" type="line"/>
			<point x="587" y="57" type="line"/>
			<point x="565" y="47" type="line"/>
			<point x="522" y="249" type="line"/>
			<point x="455" y="550" type="line"/>
			<point x="357" y="550" type="line"/>
			<point x="392" y="477" type="line"/>
			<point x="440" y="211" type="line"/>
		</contour>
	</outline>
</glyph>
<glyph name="y" format="2">
	<advance width="526"/>
	<unicode hex="0079"/>
	<outline>
		<contour>
			<point x="137" y="-204" type="curve" smooth="yes"/>
			<point x="223" y="-204"/>
			<point x="271" y="-138"/>
			<point x="301" y="-65" type="curve" smooth="yes"/>
			<point x="337" y="25"/>
			<point x="330" y="48"/>
			<point x="410" y="275" type="curve" smooth="yes"/>
			<point x="490" y="502"/>
			<point x="511" y="550"/>
			<point x="511" y="550" type="curve"/>
			<point x="511" y="550"/>
			<point x="490" y="555"/>
			<point x="455" y="555" type="curve" smooth="yes"/>
			<point x="414" y="555"/>
			<point x="399" y="550"/>
			<point x="399" y="550" type="curve"/>
			<point x="241" y="13" type="line" smooth="yes"/>
			<point x="215" y="-69"/>
			<point x="171" y="-124"/>
			<point x="114" y="-124" type="curve" smooth="yes"/>
			<point x="109" y="-124"/>
			<point x="103" y="-124"/>
			<point x="99" y="-123" type="curve"/>
			<point x="98" y="-199" type="line"/>
			<point x="98" y="-199"/>
			<point x="116" y="-204"/>
		</contour>
		<contour>
			<point x="236" y="-6" type="line"/>
			<point x="236" y="-6"/>
			<point x="270" y="101"/>
			<point x="278" y="134" type="curve"/>
			<point x="127" y="550" type="line"/>
			<point x="127" y="550"/>
			<point x="111" y="555"/>
			<point x="61" y="555" type="curve" smooth="yes"/>
			<point x="26" y="555"/>
			<point x="15" y="550"/>
			<point x="15" y="550" type="curve"/>
		</contour>
	</outline>
</glyph>
<glyph name="exclamdown" format="2">
	<advance width="319"/>
	<unicode hex="00A1"/>
	<outline>
		<contour>
			<point x="165" y="-198" type="curve" smooth="yes"/>
			<point x="195" y="-198"/>
			<point x="223" y="-192"/>
			<point x="223" y="-192" type="curve"/>
			<point x="220" y="-129"/>
			<point x="210" y="12"/>
			<point x="210" y="131" type="curve" smooth="yes"/>
			<point x="210" y="137" type="line"/>
			<point x="209" y="351" type="line"/>
			<point x="165" y="351" type="line"/>
			<point x="124" y="351" type="line"/>
			<point x="126" y="289"/>
			<point x="120" y="208"/>
			<point x="120" y="137" type="curve" smooth="yes"/>
			<point x="120" y="131" type="line"/>
			<point x="110" y="-192" type="line"/>
			<point x="110" y="-192"/>
			<point x="135" y="-198"/>
		</contour>
		<contour>
			<point x="164" y="459" type="curve" smooth="yes"/>
			<point x="198" y="459"/>
			<point x="227" y="488"/>
			<point x="227" y="522" type="curve" smooth="yes"/>
			<point x="227" y="556"/>
			<point x="198" y="584"/>
			<point x="164" y="584" type="curve" smooth="yes"/>
			<point x="130" y="584"/>
			<point x="103" y="556"/>
			<point x="103" y="522" type="curve" smooth="yes"/>
			<point x="103" y="488"/>
			<point x="130" y="459"/>
		</contour>
	</outline>
</glyph>
<glyph name="questiondown" format="2">
	<advance width="600"/>
	<unicode hex="00BF"/>
	<outline>
		<contour>
			<point x="291" y="-8" type="curve" smooth="yes"/>
			<point x="403" y="-8"/>
			<point x="479" y="79"/>
			<point x="479" y="79" type="curve"/>
			<point x="479" y="79"/>
			<point x="473" y="101"/>
			<point x="461" y="119" type="curve" smooth="yes"/>
			<point x="446" y="141"/>
			<point x="425" y="159"/>
			<point x="425" y="159" type="curve"/>
			<point x="425" y="159"/>
			<point x="360" y="71"/>
			<point x="294" y="71" type="curve" smooth="yes"/>
			<point x="219" y="71"/>
			<point x="190" y="122"/>
			<point x="190" y="181" type="curve" smooth="yes"/>
			<point x="190" y="306"/>
			<point x="382" y="342"/>
			<point x="382" y="449" type="curve" smooth="yes"/>
			<point x="382" y="555" type="line"/>
			<point x="287" y="555" type="line"/>
			<point x="287" y="489" type="line" smooth="yes"/>
			<point x="287" y="391"/>
			<point x="87" y="328"/>
			<point x="87" y="179" type="curve" smooth="yes"/>
			<point x="87" y="67"/>
			<point x="159" y="-8"/>
		</contour>
		<contour>
			<point x="326" y="657" type="curve" smooth="yes"/>
			<point x="367" y="657"/>
			<point x="400" y="690"/>
			<point x="400" y="731" type="curve" smooth="yes"/>
			<point x="400" y="772"/>
			<point x="367" y="805"/>
			<point x="326" y="805" type="curve" smooth="yes"/>
			<point x="285" y="805"/>
			<point x="252" y="772"/>
			<point x="252" y="731" type="curve" smooth="yes"/>
			<point x="252" y="690"/>
			<point x="285" y="657"/>
		</contour>
	</outline>
</glyph>
<glyph name="tilde" format="2">
	<advance width="420"/>
	<unicode hex="02DC"/>
	<outline>
		<contour>
			<point x="276" y="625" type="curve" smooth="yes"/>
			<point x="205" y="625"/>
			<point x="197" y="675"/>
			<point x="140" y="675" type="curve" smooth="yes"/>
			<point x="104" y="675"/>
			<point x="81" y="644"/>
			<point x="76" y="620" type="curve"/>
			<point x="61" y="620"/>
			<point x="43" y="625"/>
			<point x="36" y="640" type="curve"/>
			<point x="36" y="640"/>
			<point x="58" y="758"/>
			<point x="150" y="758" type="curve" smooth="yes"/>
			<point x="224" y="758"/>
			<point x="234" y="708"/>
			<point x="285" y="708" type="curve" smooth="yes"/>
			<point x="326" y="708"/>
			<point x="334" y="742"/>
			<point x="340" y="763" type="curve"/>
			<point x="358" y="762"/>
			<point x="372" y="756"/>
			<point x="380" y="743" type="curve"/>
			<point x="380" y="743"/>
			<point x="364" y="625"/>
		</contour>
	</outline>
</glyph>
<glyph name="g.alt" format="2">
	<advance width="557"/>
	<outline>
		<contour>
			<point x="282" y="-214" type="curve" smooth="yes"/>
			<point x="372" y="-214"/>
			<point x="436" y="-202"/>
			<point x="475" y="-179" type="curve" smooth="yes"/>
			<point x="513" y="-156"/>
			<point x="532" y="-118"/>
			<point x="532" y="-65" type="curve" smooth="yes"/>
			<point x="532" y="-18"/>
			<point x="520" y="16"/>
			<point x="495" y="35" type="curve" smooth="yes"/>
			<point x="470" y="54"/>
			<point x="426" y="64"/>
			<point x="363" y="64" type="curve" smooth="yes"/>
			<point x="282" y="64" type="line" smooth="yes"/>
			<point x="253" y="64"/>
			<point x="229" y="65"/>
			<point x="210" y="68" type="curve" smooth="yes"/>
			<point x="191" y="70"/>
			<point x="176" y="73"/>
			<point x="165" y="76" type="curve" smooth="yes"/>
			<point x="154" y="79"/>
			<point x="147" y="85"/>
			<point x="142" y="92" type="curve" smooth="yes"/>
			<point x="137" y="99"/>
			<point x="133" y="106"/>
			<point x="132" y="113" type="curve" smooth="yes"/>
			<point x="131" y="120"/>
			<point x="130" y="129"/>
			<point x="130" y="140" type="curve" smooth="yes"/>
			<point x="130" y="154"/>
			<point x="136" y="167"/>
			<point x="147" y="178" type="curve" smooth="yes"/>
			<point x="158" y="189"/>
			<point x="171" y="196"/>
			<point x="184" y="200" type="curve"/>
			<point x="139" y="249" type="line"/>
			<point x="117" y="238"/>
			<point x="97" y="221"/>
			<point x="79" y="198" type="curve" smooth="yes"/>
			<point x="61" y="174"/>
			<point x="52" y="147"/>
			<point x="52" y="117" type="curve" smooth="yes"/>
			<point x="52" y="71"/>
			<point x="69" y="38"/>
			<point x="102" y="17" type="curve" smooth="yes"/>
			<point x="135" y="-4"/>
			<point x="177" y="-14"/>
			<point x="230" y="-14" type="curve" smooth="yes"/>
			<point x="369" y="-14" type="line" smooth="yes"/>
			<point x="397" y="-14"/>
			<point x="416" y="-19"/>
			<point x="427" y="-28" type="curve" smooth="yes"/>
			<point x="437" y="-37"/>
			<point x="442" y="-52"/>
			<point x="442" y="-73" type="curve" smooth="yes"/>
			<point x="442" y="-101"/>
			<point x="433" y="-119"/>
			<point x="416" y="-126" type="curve" smooth="yes"/>
			<point x="398" y="-133"/>
			<point x="353" y="-136"/>
			<point x="282" y="-136" type="curve" smooth="yes"/>
			<point x="249" y="-136"/>
			<point x="223" y="-135"/>
			<point x="204" y="-134" type="curve" smooth="yes"/>
			<point x="185" y="-133"/>
			<point x="168" y="-130"/>
			<point x="154" y="-127" type="curve" smooth="yes"/>
			<point x="139" y="-124"/>
			<point x="129" y="-118"/>
			<point x="123" y="-111" type="curve" smooth="yes"/>
			<point x="117" y="-103"/>
			<point x="113" y="-94"/>
			<point x="110" y="-85" type="curve" smooth="yes"/>
			<point x="107" y="-75"/>
			<point x="106" y="-61"/>
			<point x="106" y="-44" type="curve" smooth="yes"/>
			<point x="106" y="-27"/>
			<point x="110" y="-10"/>
			<point x="118" y="7" type="curve" smooth="yes"/>
			<point x="126" y="24"/>
			<point x="135" y="38"/>
			<point x="145" y="49" type="curve"/>
			<point x="113" y="74" type="line"/>
			<point x="92" y="64"/>
			<point x="73" y="47"/>
			<point x="56" y="24" type="curve" smooth="yes"/>
			<point x="39" y="1"/>
			<point x="30" y="-26"/>
			<point x="30" y="-57" type="curve" smooth="yes"/>
			<point x="30" y="-113"/>
			<point x="51" y="-153"/>
			<point x="92" y="-178" type="curve" smooth="yes"/>
			<point x="133" y="-202"/>
			<point x="197" y="-214"/>
		</contour>
		<contour>
			<point x="272" y="152" type="curve" smooth="yes"/>
			<point x="330" y="152"/>
			<point x="379" y="171"/>
			<point x="419" y="210" type="curve" smooth="yes"/>
			<point x="459" y="249"/>
			<point x="479" y="298"/>
			<point x="479" y="359" type="curve" smooth="yes"/>
			<point x="479" y="420"/>
			<point x="459" y="469"/>
			<point x="419" y="508" type="curve" smooth="yes"/>
			<point x="379" y="547"/>
			<point x="330" y="566"/>
			<point x="272" y="566" type="curve" smooth="yes"/>
			<point x="213" y="566"/>
			<point x="164" y="547"/>
			<point x="124" y="508" type="curve" smooth="yes"/>
			<point x="84" y="469"/>
			<point x="64" y="420"/>
			<point x="64" y="359" type="curve" smooth="yes"/>
			<point x="64" y="298"/>
			<point x="84" y="249"/>
			<point x="124" y="210" type="curve" smooth="yes"/>
			<point x="164" y="171"/>
			<point x="213" y="152"/>
		</contour>
		<contour>
			<point x="272" y="233" type="curve" smooth="yes"/>
			<point x="233" y="233"/>
			<point x="205" y="243"/>
			<point x="189" y="263" type="curve" smooth="yes"/>
			<point x="172" y="282"/>
			<point x="164" y="314"/>
			<point x="164" y="359" type="curve" smooth="yes"/>
			<point x="164" y="404"/>
			<point x="172" y="436"/>
			<point x="189" y="456" type="curve" smooth="yes"/>
			<point x="205" y="475"/>
			<point x="233" y="485"/>
			<point x="272" y="485" type="curve" smooth="yes"/>
			<point x="311" y="485"/>
			<point x="338" y="475"/>
			<point x="355" y="456" type="curve" smooth="yes"/>
			<point x="371" y="436"/>
			<point x="379" y="404"/>
			<point x="379" y="359" type="curve" smooth="yes"/>
			<point x="379" y="314"/>
			<point x="371" y="282"/>
			<point x="355" y="263" type="curve" smooth="yes"/>
			<point x="338" y="243"/>
			<point x="311" y="233"/>
		</contour>
		<contour>
			<point x="342" y="480" type="line"/>
			<point x="419" y="480"/>
			<point x="468" y="483"/>
			<point x="489" y="490" type="curve" smooth="yes"/>
			<point x="510" y="497"/>
			<point x="520" y="514"/>
			<point x="520" y="541" type="curve" smooth="yes"/>
			<point x="520" y="566"/>
			<point x="514" y="580"/>
			<point x="501" y="585" type="curve"/>
			<point x="484" y="573"/>
			<point x="462" y="562"/>
			<point x="433" y="553" type="curve" smooth="yes"/>
			<point x="404" y="543"/>
			<point x="373" y="538"/>
			<point x="342" y="538" type="curve"/>
		</contour>
	</outline>
</glyph>
